<svg id="Group_57668" data-name="Group 57668" xmlns="http://www.w3.org/2000/svg" width="19.679" height="19.834" viewBox="0 0 19.679 19.834">
  <path id="Path_42643" data-name="Path 42643" d="M7.648,7.322A7.859,7.859,0,0,1,13.25,5a7.764,7.764,0,0,1,5.578,2.322,7.888,7.888,0,0,1,.383,10.772l5.639,5.663a.666.666,0,0,1,0,.91.756.756,0,0,1-.455.168.654.654,0,0,1-.455-.192L18.276,18.98A7.874,7.874,0,0,1,13.226,20.8a7.764,7.764,0,0,1-5.578-2.322A7.918,7.918,0,0,1,7.648,7.322Zm.91,10.269a6.631,6.631,0,1,0,0-9.384A6.61,6.61,0,0,0,8.558,17.591Z" transform="translate(-5.35 -5)" fill="#57606f"/>
  <path id="Path_42644" data-name="Path 42644" d="M66.551,19.38a7.979,7.979,0,0,1,3.3-3.423.632.632,0,0,1,.622,1.1,6.878,6.878,0,0,0-1.508,1.125A7.107,7.107,0,0,0,67.7,19.93a.668.668,0,0,1-.575.359.637.637,0,0,1-.287-.072A.611.611,0,0,1,66.551,19.38Z" transform="translate(-64.037 -13.276)" fill="#57606f"/>
</svg>
