<svg id="settings_black_24dp_1_" data-name="settings_black_24dp (1)" xmlns="http://www.w3.org/2000/svg" width="30" height="30" viewBox="0 0 30 30">
  <path id="Path_44040" data-name="Path 44040" d="M0,0H30V30H0Z" fill="none"/>
  <path id="Path_44041" data-name="Path 44041" d="M24.434,16.234A9.224,9.224,0,0,0,24.513,15a7.533,7.533,0,0,0-.092-1.234L27.1,11.693a.641.641,0,0,0,.159-.8L24.725,6.534a.647.647,0,0,0-.78-.289l-3.158,1.26a9.349,9.349,0,0,0-2.14-1.234l-.476-3.334a.638.638,0,0,0-.634-.538H12.463a.625.625,0,0,0-.621.538l-.476,3.334a9.555,9.555,0,0,0-2.14,1.234L6.068,6.246a.633.633,0,0,0-.78.289L2.765,10.892a.594.594,0,0,0,.159.8l2.682,2.074a7.254,7.254,0,0,0-.026,2.467L2.9,18.307a.641.641,0,0,0-.159.8l2.537,4.358a.647.647,0,0,0,.78.289l3.158-1.26a9.349,9.349,0,0,0,2.14,1.234l.476,3.334a.648.648,0,0,0,.634.538h5.074a.615.615,0,0,0,.621-.538l.476-3.334a9.077,9.077,0,0,0,2.14-1.234l3.158,1.26a.633.633,0,0,0,.78-.289l2.537-4.358a.6.6,0,0,0-.159-.8ZM15,19.725A4.725,4.725,0,1,1,19.757,15,4.755,4.755,0,0,1,15,19.725Z" fill="#160e4d"/>
</svg>
